<?xml version="1.0" standalone="no"?><!DOCTYPE svg PUBLIC "-//W3C//DTD SVG 1.1//EN" "http://www.w3.org/Graphics/SVG/1.1/DTD/svg11.dtd"><svg t="1563706055019" class="icon" viewBox="0 0 1024 1024" version="1.1" xmlns="http://www.w3.org/2000/svg" p-id="2556" xmlns:xlink="http://www.w3.org/1999/xlink" width="64" height="64"><defs><style type="text/css"></style></defs><path d="M532.195556 763.448889c-1.422222 0.142222-2.702222 0.568889-4.124445 0.568889H456.177778c-17.635556 0-32-9.884444-32-22.115556v-51.484444c0-12.231111 14.364444-22.115556 32-22.115556h71.893333c4.764444 0 9.173333 0.853333 13.226667 2.133334 30.08-99.128889 121.102222-171.662222 229.973333-171.662223 70.115556 0 132.622222 30.293333 176.711111 78.008889V277.973333c0.071111-32.568889-10.382222-64.355556-29.795555-90.524444-21.475556-28.302222-52.124444-44.302222-85.333334-44.302222h-25.386666v-62.222223c0-16.355556-13.297778-29.653333-29.653334-29.653333s-29.653333 13.297778-29.653333 29.653333v62.862223h58.097778v74.097777c0 16.355556-13.297778 29.653333-29.653334 29.653334s-29.653333-13.297778-29.653333-29.653334V143.075556H259.2v-62.222223c0-16.355556-13.297778-29.653333-29.653333-29.653333s-29.653333 13.297778-29.653334 29.653333v63.004445h58.097778v74.097778c0 16.355556-13.297778 29.653333-29.653333 29.653333s-29.653333-13.297778-29.653334-29.653333V143.075556h-17.991111c-20.124444 0-40.32 6.684444-58.951111 17.635555-9.102222 4.266667-17.777778 9.102222-25.528889 15.004445-28.302222 21.404444-44.302222 52.124444-44.302222 85.333333V270.933333c-0.142222 2.346667-0.782222 4.764444-0.782222 7.111111v537.315556c0 34.062222 14.791111 64.64 42.311111 86.684444 12.302222 9.813333 26.24 17.28 41.244444 22.257778 16.853333 7.466667 34.631111 11.662222 52.053334 11.662222h444.231111c-56.248889-40.462222-92.302222-103.395556-98.773333-172.515555z m27.875555-188.942222c0 12.231111-14.364444 22.115556-32 22.115555H456.177778c-17.635556 0-32-9.884444-32-22.115555v-51.413334c0-12.231111 14.364444-22.115556 32-22.115555h71.893333c17.635556 0 32 9.884444 32 22.115555v51.555556-0.142222z m-359.253333-231.111111h597.617778c16.355556 0 29.653333 13.297778 29.653333 29.653333 0 16.355556-13.297778 29.653333-29.653333 29.653333H200.817778c-16.355556 0-29.653333-13.297778-29.653334-29.653333 0-16.426667 13.226667-29.653333 29.653334-29.653333z m108.302222 398.577777c0 12.231111-14.293333 22.115556-31.928889 22.115556H205.226667c-17.635556 0-31.928889-9.884444-31.928889-22.115556V690.488889c0-12.231111 14.364444-22.115556 32-22.115556h71.893333c17.635556 0 31.928889 9.884444 31.928889 22.115556v51.484444z m0-167.466666c0 12.231111-14.293333 22.115556-31.928889 22.115555H205.226667c-17.635556 0-31.928889-9.884444-31.928889-22.115555v-51.413334c0-12.231111 14.364444-22.115556 32-22.115555h71.893333c17.635556 0 31.928889 9.884444 31.928889 22.115555v51.555556-0.142222z" p-id="2557"></path><path d="M973.084444 766.008889c-0.284444 105.671111-85.902222 191.288889-191.644444 191.644444-105.671111-0.355556-191.288889-85.902222-191.573333-191.644444 0.355556-105.671111 85.902222-191.217778 191.573333-191.573333 105.742222 0.355556 191.288889 85.902222 191.644444 191.573333zM663.111111 689.351111v16.568889h29.653333c-2.133333 5.333333-4.48 10.666667-6.968888 16-5.688889 11.022222-11.946667 21.902222-18.702223 32.568889h54.471111c5.902222-10.311111 11.306667-20.906667 16.284445-31.786667 2.275556-5.546667 4.266667-11.093333 5.902222-16.853333h11.235556v50.204444h51.768889v-50.204444h15.217777c5.688889 16.355556 11.946667 32.568889 18.702223 48.568889h51.555555c-8.391111-15.644444-15.715556-31.857778-22.186667-48.568889h29.866667v-16.568889h-93.155555V666.311111c29.013333-0.853333 58.097778-2.204444 87.324444-3.982222l-2.702222-17.92c-73.884444 4.266667-147.84 5.973333-221.866667 5.048889v17.635555c28.444444 0.568889 56.96 0.64 85.404445 0.284445v21.902222H663.111111v0.071111z m0.284445 126.506667v17.066666h94.791111v37.617778l-58.737778-12.8v16.568889l58.737778 13.368889h54.471111v-54.755556h86.755555v-17.066666h-86.755555v-6.115556c21.333333-9.457778 39.964444-19.413333 55.822222-29.866666v-14.222223H676.835556v14.435556h123.591111c-11.591111 7.822222-25.6 15.573333-42.168889 23.253333v12.515556H663.395556z" p-id="2558"></path></svg>