<?xml version="1.0" standalone="no"?><!DOCTYPE svg PUBLIC "-//W3C//DTD SVG 1.1//EN" "http://www.w3.org/Graphics/SVG/1.1/DTD/svg11.dtd"><svg t="1563706118008" class="icon" viewBox="0 0 1024 1024" version="1.1" xmlns="http://www.w3.org/2000/svg" p-id="3301" xmlns:xlink="http://www.w3.org/1999/xlink" width="64" height="64"><defs><style type="text/css"></style></defs><path d="M814.545455 942.545455H209.454545c-76.8 0-139.636364-62.836364-139.636363-139.636364v-512c0-76.8 62.836364-139.636364 139.636363-139.636364h605.09091c76.8 0 139.636364 62.836364 139.636363 139.636364v512c0 76.8-62.836364 139.636364-139.636363 139.636364z m-605.09091-698.181819c-25.6 0-46.545455 20.945455-46.545454 46.545455v512c0 25.6 20.945455 46.545455 46.545454 46.545454h605.09091c25.6 0 46.545455-20.945455 46.545454-46.545454v-512c0-25.6-20.945455-46.545455-46.545454-46.545455H209.454545z" fill="#4A4A4A" p-id="3302"></path><path d="M324.654545 314.181818c-25.6 0-46.545455-20.945455-46.545454-46.545454v-139.636364c0-25.6 20.945455-46.545455 46.545454-46.545455s46.545455 20.945455 46.545455 46.545455v139.636364c0 25.6-18.618182 46.545455-46.545455 46.545454zM697.018182 314.181818c-25.6 0-46.545455-20.945455-46.545455-46.545454v-139.636364c0-25.6 20.945455-46.545455 46.545455-46.545455s46.545455 20.945455 46.545454 46.545455v139.636364c0 25.6-18.618182 46.545455-46.545454 46.545454zM525.963636 802.909091c-6.981818 0-13.963636-2.327273-20.945454-4.654546-23.272727-11.636364-32.581818-39.563636-20.945455-62.836363l23.272728-48.872727H442.181818c-25.6 0-46.545455-20.945455-46.545454-46.545455s20.945455-46.545455 46.545454-46.545455h139.636364c16.290909 0 30.254545 9.309091 39.563636 20.945455 9.309091 13.963636 9.309091 30.254545 2.327273 44.218182l-55.854546 116.363636c-6.981818 18.618182-25.6 27.927273-41.890909 27.927273z" fill="#4A4A4A" p-id="3303"></path><path d="M581.818182 453.818182c-11.636364 0-23.272727-4.654545-32.581818-13.963637L512 402.618182l-37.236364 37.236363c-18.618182 18.618182-46.545455 18.618182-65.163636 0-18.618182-18.618182-18.618182-46.545455 0-65.163636l69.818182-69.818182c18.618182-18.618182 46.545455-18.618182 65.163636 0l69.818182 69.818182c18.618182 18.618182 18.618182 46.545455 0 65.163636-9.309091 9.309091-20.945455 13.963636-32.581818 13.963637z" fill="#4A4A4A" p-id="3304"></path><path d="M512 523.636364m-46.545455 0a46.545455 46.545455 0 1 0 93.09091 0 46.545455 46.545455 0 1 0-93.09091 0Z" fill="#4A4A4A" p-id="3305"></path></svg>