<?xml version="1.0" standalone="no"?><!DOCTYPE svg PUBLIC "-//W3C//DTD SVG 1.1//EN" "http://www.w3.org/Graphics/SVG/1.1/DTD/svg11.dtd"><svg t="1563706159451" class="icon" viewBox="0 0 1024 1024" version="1.1" xmlns="http://www.w3.org/2000/svg" p-id="4088" xmlns:xlink="http://www.w3.org/1999/xlink" width="64" height="64"><defs><style type="text/css"></style></defs><path d="M448 192h128c17.7 0 32-14.3 32-32s-14.3-32-32-32H448c-17.7 0-32 14.3-32 32s14.3 32 32 32z" p-id="4089"></path><path d="M864 128h-32c-17.7 0-32 14.3-32 32s14.3 32 32 32h32c17.6 0 32 14.4 32 32v96H128v-96c0-17.6 14.4-32 32-32h32c17.7 0 32-14.3 32-32s-14.3-32-32-32h-32c-52.9 0-96 43.1-96 96v640c0 52.9 43.1 96 96 96h704c52.9 0 96-43.1 96-96V224c0-52.9-43.1-96-96-96z m32 736c0 17.6-14.4 32-32 32H160c-17.6 0-32-14.4-32-32V384h768v480z" p-id="4090"></path><path d="M320 257c17.7 0 32-14.3 32-32V96c0-17.7-14.3-32-32-32s-32 14.3-32 32v129c0 17.7 14.3 32 32 32zM704 257c17.7 0 32-14.3 32-32V96c0-17.7-14.3-32-32-32s-32 14.3-32 32v129c0 17.7 14.3 32 32 32zM355.3 780.2s0 0.1 0.1 0.1c0.3 0.6 0.6 1.2 1 1.8 0.1 0.1 0.1 0.2 0.2 0.3 0.4 0.6 0.7 1.2 1.2 1.8v0.1c0.4 0.5 0.8 1.1 1.2 1.6 0.1 0.1 0.2 0.2 0.3 0.4 0.4 0.5 0.8 1 1.3 1.5l0.1 0.1c0.4 0.5 0.9 0.9 1.4 1.4l0.4 0.4c0.4 0.3 0.7 0.6 1.1 1 0.1 0.1 0.3 0.2 0.4 0.4 0.5 0.4 1 0.8 1.5 1.1 0.2 0.1 0.3 0.2 0.5 0.3 0.4 0.2 0.7 0.5 1.1 0.7 0.2 0.1 0.4 0.3 0.7 0.4 0.4 0.2 0.7 0.4 1.1 0.6l0.6 0.3s0.1 0 0.1 0.1c0.5 0.2 1 0.5 1.5 0.7 0.1 0 0.2 0.1 0.3 0.1 0.6 0.3 1.3 0.5 2 0.8 0.1 0 0.2 0.1 0.3 0.1 0.6 0.2 1.2 0.4 1.7 0.6 0.1 0 0.2 0.1 0.4 0.1 0.6 0.2 1.1 0.3 1.7 0.4 0.1 0 0.3 0.1 0.4 0.1 0.6 0.1 1.1 0.2 1.7 0.3 0.1 0 0.3 0 0.4 0.1 0.6 0.1 1.2 0.1 1.8 0.2h0.3c0.7 0 1.4 0.1 2.1 0.1 0.7 0 1.4 0 2.1-0.1h0.3c0.6 0 1.2-0.1 1.7-0.2 0.1 0 0.3 0 0.4-0.1 0.6-0.1 1.1-0.2 1.7-0.3 0.1 0 0.3-0.1 0.4-0.1 0.6-0.1 1.1-0.3 1.7-0.4 0.1 0 0.2-0.1 0.4-0.1 0.6-0.2 1.2-0.3 1.7-0.5 0.1 0 0.2-0.1 0.3-0.1 0.7-0.2 1.3-0.5 2-0.8 0.1 0 0.2-0.1 0.2-0.1 0.5-0.2 1-0.5 1.5-0.7 0 0 0.1 0 0.1-0.1l0.6-0.3c0.4-0.2 0.8-0.4 1.1-0.6 0.2-0.1 0.4-0.3 0.7-0.4 0.4-0.2 0.8-0.5 1.1-0.7 0.2-0.1 0.3-0.2 0.5-0.3 0.5-0.4 1-0.7 1.5-1.1 0.1-0.1 0.3-0.2 0.4-0.3 0.4-0.3 0.8-0.6 1.1-1l0.4-0.4 1.4-1.4c0.4-0.5 0.9-1 1.3-1.5 0.1-0.1 0.2-0.2 0.3-0.4 0.4-0.5 0.8-1 1.2-1.6l1.2-1.8c0.1-0.1 0.1-0.2 0.2-0.3 0.4-0.6 0.7-1.2 1-1.8 0 0 0-0.1 0.1-0.1L512 583.7l99.5 199c0.3 0.6 0.7 1.3 1 1.9 0.1 0.1 0.1 0.2 0.2 0.3 0.7 1.2 1.5 2.3 2.4 3.4 0.1 0.1 0.2 0.2 0.3 0.4 0.4 0.4 0.7 0.9 1.1 1.3 0.1 0.1 0.1 0.2 0.2 0.2 0.4 0.5 0.9 0.9 1.4 1.4 0.1 0.1 0.3 0.2 0.4 0.4 0.4 0.3 0.7 0.7 1.1 1 0.2 0.1 0.3 0.3 0.5 0.4 0.5 0.4 1 0.8 1.5 1.1 0.1 0.1 0.2 0.2 0.3 0.2 0.4 0.3 0.8 0.6 1.3 0.8 0.2 0.1 0.4 0.3 0.6 0.4 0.4 0.2 0.7 0.4 1.1 0.6l0.6 0.3c0.1 0 0.1 0.1 0.2 0.1 0.4 0.2 0.8 0.4 1.1 0.5 0.2 0.1 0.3 0.2 0.5 0.2 0.6 0.3 1.3 0.5 2 0.8 0.7 0.2 1.3 0.4 2 0.6 0.1 0 0.2 0 0.3 0.1 0.6 0.2 1.2 0.3 1.8 0.4 0.1 0 0.2 0.1 0.4 0.1 0.6 0.1 1.1 0.2 1.7 0.3 0.1 0 0.3 0 0.4 0.1 0.6 0.1 1.2 0.1 1.7 0.2h0.4c0.7 0 1.4 0.1 2.1 0.1 0.7 0 1.4 0 2.1-0.1h0.4c0.6 0 1.2-0.1 1.7-0.2 0.1 0 0.3 0 0.4-0.1 0.6-0.1 1.1-0.2 1.7-0.3 0.1 0 0.3-0.1 0.4-0.1 0.6-0.1 1.2-0.3 1.7-0.4 0.1 0 0.2 0 0.3-0.1 0.7-0.2 1.3-0.4 2-0.6 0.7-0.2 1.3-0.5 2-0.8 0.2-0.1 0.3-0.2 0.5-0.2 0.4-0.2 0.8-0.3 1.2-0.5 0.1 0 0.1-0.1 0.2-0.1l0.6-0.3c0.4-0.2 0.8-0.4 1.1-0.6 0.2-0.1 0.4-0.2 0.6-0.4 0.4-0.3 0.9-0.6 1.3-0.9 0.1-0.1 0.2-0.1 0.3-0.2l1.5-1.2c0.2-0.1 0.3-0.2 0.4-0.4 0.4-0.3 0.8-0.7 1.1-1 0.1-0.1 0.3-0.2 0.4-0.4l1.4-1.4c0.1-0.1 0.1-0.2 0.2-0.2 0.4-0.4 0.8-0.9 1.1-1.3 0.1-0.1 0.2-0.2 0.3-0.4 0.9-1.1 1.7-2.2 2.4-3.4 0.1-0.1 0.1-0.2 0.2-0.3 0.4-0.6 0.7-1.2 1-1.9l128-256c7.9-15.8 1.5-35-14.3-42.9-15.8-7.9-35-1.5-42.9 14.3L640 696.4l-99.3-198.7c-0.3-0.5-0.5-1-0.8-1.5l-0.1-0.1c-0.2-0.4-0.5-0.8-0.7-1.2-0.1-0.1-0.1-0.2-0.2-0.3-0.2-0.3-0.4-0.7-0.7-1-0.1-0.1-0.2-0.3-0.3-0.4-0.2-0.3-0.4-0.6-0.6-0.8-0.1-0.2-0.3-0.3-0.4-0.5-0.2-0.2-0.4-0.5-0.6-0.7-0.2-0.2-0.3-0.4-0.5-0.6-0.2-0.2-0.4-0.4-0.5-0.6l-0.6-0.6-0.5-0.5c-0.2-0.2-0.4-0.4-0.7-0.6-0.2-0.1-0.3-0.3-0.5-0.4-0.2-0.2-0.5-0.4-0.8-0.6-0.1-0.1-0.3-0.2-0.4-0.4-0.3-0.2-0.6-0.4-0.9-0.7-0.1-0.1-0.2-0.2-0.4-0.3-0.4-0.2-0.7-0.5-1.1-0.7-0.1-0.1-0.2-0.1-0.2-0.2-0.4-0.3-0.9-0.6-1.3-0.8-0.9-0.5-1.9-1-2.9-1.5l-0.6-0.3c-0.3-0.1-0.5-0.2-0.8-0.3-0.4-0.2-0.8-0.3-1.2-0.4-0.1 0-0.2-0.1-0.2-0.1-0.5-0.2-0.9-0.3-1.4-0.4h-0.1c-0.5-0.1-1-0.3-1.4-0.4h-0.1c-0.5-0.1-0.9-0.2-1.4-0.3h-0.1c-0.4-0.1-0.9-0.1-1.3-0.2h-0.2c-0.4-0.1-0.8-0.1-1.2-0.1h-0.4c-0.3 0-0.7 0-1-0.1H510.8c-0.3 0-0.7 0-1 0.1h-0.4c-0.4 0-0.8 0.1-1.2 0.1h-0.2c-0.4 0.1-0.9 0.1-1.3 0.2h-0.1c-0.5 0.1-0.9 0.2-1.4 0.3h-0.1c-0.5 0.1-1 0.2-1.4 0.4h-0.1c-0.5 0.1-0.9 0.3-1.4 0.4-0.1 0-0.1 0-0.2 0.1-0.4 0.1-0.8 0.3-1.2 0.4l-0.6 0.3c-0.3 0.1-0.5 0.2-0.8 0.3-1 0.4-2 0.9-2.9 1.4l-0.1 0.1c-0.4 0.2-0.8 0.5-1.2 0.7-0.1 0.1-0.2 0.1-0.3 0.2-0.3 0.2-0.7 0.4-1 0.7-0.1 0.1-0.3 0.2-0.4 0.3-0.3 0.2-0.6 0.4-0.8 0.6-0.2 0.1-0.3 0.3-0.5 0.4-0.2 0.2-0.5 0.4-0.7 0.6-0.2 0.2-0.4 0.3-0.5 0.5l-0.6 0.6-0.6 0.6-0.5 0.5-0.6 0.6-0.5 0.5c-0.2 0.2-0.4 0.5-0.6 0.7-0.1 0.2-0.3 0.3-0.4 0.5-0.2 0.3-0.4 0.6-0.6 0.8-0.1 0.1-0.2 0.3-0.3 0.4-0.2 0.3-0.5 0.7-0.7 1-0.1 0.1-0.1 0.2-0.2 0.3-0.3 0.4-0.5 0.8-0.8 1.3 0 0 0 0.1-0.1 0.1-0.3 0.5-0.6 1-0.8 1.5L384 694.9l-99.4-197.3c-8-15.8-27.2-22.1-43-14.2s-22.1 27.2-14.2 43l127.9 253.8z" p-id="4091"></path></svg>