<?xml version="1.0" standalone="no"?><!DOCTYPE svg PUBLIC "-//W3C//DTD SVG 1.1//EN" "http://www.w3.org/Graphics/SVG/1.1/DTD/svg11.dtd"><svg t="1563706190490" class="icon" viewBox="0 0 1095 1024" version="1.1" xmlns="http://www.w3.org/2000/svg" p-id="4862" xmlns:xlink="http://www.w3.org/1999/xlink" width="68.4375" height="64"><defs><style type="text/css"></style></defs><path d="M774.355497 566.193271v54.973248h-122.513593v67.964656h151.953297v54.973249H651.841904v91.339206h-63.259795v-91.339206H383.452647V689.131175h60.61409v-105.840662q-11.681035 12.329982-24.235652 24.023496-16.448295-24.672443-38.961744-55.410039 65.793182-54.112146 101.298038-144.577771l67.103554 9.983791q-7.575201 18.831925-16.22366 36.790269h257.706601v54.973249H651.841904v57.119763z m-314.926202 0h129.152814V509.048548h-86.509547a534.519682 534.519682 0 0 1-42.643267 57.144723z m45.239052 122.937904h83.913762v-67.964656H504.668347z" fill="#231815" p-id="4863"></path><path d="M999.889333 994.784932H184.72529A67.877298 67.877298 0 0 1 116.847992 926.957553V180.868863a67.864818 67.864818 0 0 1 67.877298-67.814899h67.927217v56.520736a79.196421 79.196421 0 0 0 79.24634 79.134022h22.650725a79.196421 79.196421 0 0 0 79.283779-79.146502V113.053964h316.98536v56.520736a79.196421 79.196421 0 0 0 79.246339 79.134022h22.638246a79.196421 79.196421 0 0 0 79.25882-79.134022V113.053964h67.927217a67.877298 67.877298 0 0 1 67.914737 67.814899v746.08869a67.889778 67.889778 0 0 1-67.927217 67.827379z m0-655.660504H184.72529v587.795686h815.164043zM852.703296 203.48215h-22.650725a33.944889 33.944889 0 0 1-33.969849-33.91993V33.919942A33.944889 33.944889 0 0 1 830.052571 0.000012h22.638245a33.944889 33.944889 0 0 1 33.969849 33.91993v135.654758a33.944889 33.944889 0 0 1-33.969849 33.90745z m-498.153724 0h-22.638245a33.944889 33.944889 0 0 1-33.969849-33.91993V33.919942A33.944889 33.944889 0 0 1 331.911327 0.000012h22.638245a33.944889 33.944889 0 0 1 33.957369 33.91993v135.654758a33.944889 33.944889 0 0 1-33.957369 33.90745z m0 0" fill="" p-id="4864"></path></svg>